<?xml version="1.0" standalone="no"?>
<!DOCTYPE svg PUBLIC "-//W3C//DTD SVG 20010904//EN"
 "http://www.w3.org/TR/2001/REC-SVG-20010904/DTD/svg10.dtd">
<svg version="1.0" xmlns="http://www.w3.org/2000/svg"
 width="600.000000pt" height="306.000000pt" viewBox="0 0 600.000000 306.000000"
 preserveAspectRatio="xMidYMid meet">

<g transform="translate(0.000000,306.000000) scale(0.100000,-0.100000)"
fill="#000000" stroke="none">
<path d="M545 2866 c-120 -30 -243 -123 -305 -231 -84 -147 -79 -357 11 -500
17 -27 158 -177 312 -332 l281 -283 -245 -2 c-134 -1 -284 -2 -334 -2 l-90 -1
0 -343 0 -343 290 -288 c303 -302 334 -326 450 -357 66 -18 187 -18 255 0 150
40 283 165 337 318 21 59 28 182 14 251 -27 128 -51 159 -370 480 l-295 297
337 0 337 0 0 348 0 348 -282 280 c-298 296 -340 329 -453 359 -70 18 -180 18
-250 1z"/>
<path d="M4650 1970 c-59 -14 -82 -68 -59 -134 12 -34 21 -43 53 -54 49 -16
122 -6 147 19 10 10 21 30 25 45 9 34 -12 101 -35 114 -28 15 -92 20 -131 10z"/>
<path d="M5040 1968 c-73 -20 -110 -80 -110 -178 l0 -60 -30 0 -30 0 0 -80 0
-80 30 0 30 0 0 -230 0 -230 110 0 110 0 0 229 0 230 48 3 47 3 5 70 5 70 32
-120 c18 -66 53 -201 78 -300 l46 -180 -22 -17 c-12 -11 -38 -18 -61 -18 l-40
0 7 -77 c4 -43 10 -82 13 -87 7 -13 218 2 257 18 70 30 84 65 179 442 48 191
90 353 93 361 4 10 -17 13 -104 13 l-110 0 -33 -200 c-18 -110 -37 -200 -41
-200 -5 0 -9 4 -9 9 0 12 -49 341 -55 369 -5 21 -9 22 -120 22 -70 0 -115 -4
-115 -10 0 -12 -97 -13 -104 -1 -4 5 -3 16 0 25 5 12 20 16 59 16 l54 0 6 58
c3 31 8 73 11 93 l5 36 -77 6 c-96 9 -120 8 -164 -5z"/>
<path d="M1840 1525 l0 -415 225 0 225 0 0 49 c0 26 3 69 6 95 l7 46 -122 0
-122 0 3 68 3 67 98 3 97 3 0 84 0 84 -97 3 -98 3 0 60 0 60 113 3 112 3 0 53
c0 29 3 74 6 100 l7 46 -232 0 -231 0 0 -415z"/>
<path d="M4215 1805 l-7 -65 -39 0 -39 0 0 -80 0 -80 35 0 35 0 0 -192 c0
-174 2 -196 20 -225 33 -54 69 -66 187 -61 57 3 105 7 107 9 2 2 6 41 8 86 l5
82 -51 3 -51 3 -3 148 -3 147 56 0 55 0 0 80 0 80 -55 0 -55 0 0 65 0 65 -99
0 -99 0 -7 -65z"/>
<path d="M3146 1760 c-91 -16 -161 -84 -191 -183 -20 -66 -19 -218 0 -285 20
-66 70 -131 125 -162 41 -23 55 -25 160 -25 63 1 134 7 158 14 l44 12 -7 77
c-4 42 -9 79 -11 81 -1 2 -39 -3 -82 -11 -44 -8 -94 -13 -111 -10 -36 5 -71
44 -71 78 0 23 0 23 153 26 l152 3 3 100 c4 112 -7 164 -45 214 -46 60 -164
90 -277 71z m114 -200 c11 -11 20 -33 20 -50 0 -30 0 -30 -58 -30 -32 0 -61 2
-64 6 -9 9 10 76 24 85 23 15 57 10 78 -11z"/>
<path d="M3873 1761 c-17 -5 -48 -18 -68 -30 -45 -26 -51 -26 -58 -1 -5 18
-14 20 -106 20 l-101 0 0 -320 0 -320 110 0 110 0 0 220 0 220 24 6 c13 3 35
4 47 2 l24 -3 3 -222 2 -223 110 0 110 0 0 275 c0 303 -5 331 -57 358 -37 19
-109 28 -150 18z"/>
<path d="M2325 1728 c3 -13 34 -156 69 -318 l63 -295 156 -3 c156 -2 157 -2
162 20 3 13 34 156 68 318 l63 295 -104 3 c-58 1 -106 1 -107 0 -2 -2 -17 -92
-33 -201 -29 -190 -35 -217 -47 -205 -3 3 -17 86 -31 184 -13 99 -27 189 -29
202 -5 21 -9 22 -120 22 -115 0 -115 0 -110 -22z"/>
<path d="M4590 1425 l0 -315 110 0 110 0 0 315 0 315 -110 0 -110 0 0 -315z"/>
</g>
</svg>
