<svg data-v-423bf9ae="" xmlns="http://www.w3.org/2000/svg" viewBox="0 0 407 90" class="iconLeft"><!----><!----><!----><g data-v-423bf9ae="" id="766b864f-5c36-4e75-94ab-17124cd822a9" fill="#000000" transform="matrix(4.507888986286435,0,0,4.507888986286435,104.95116463685099,-2.3102934415148653)"><path d="M7.36 14.35L7.36 12.63L3.22 12.63L3.22 10.26L7.22 10.26L7.22 8.54L3.22 8.54L3.22 6.30L7.36 6.30L7.36 4.58L1.12 4.58L1.12 14.35ZM13.83 14.35L16.42 7.13L14.32 7.13L13.38 10.22L12.70 12.63L12.59 12.63L11.90 10.22L10.96 7.13L8.78 7.13L11.37 14.35ZM21.20 14.52C22.75 14.52 23.73 13.93 24.29 13.24L23.17 12.03C22.72 12.56 22.12 12.92 21.27 12.92C20.16 12.92 19.56 12.29 19.56 11.37L19.56 11.24L24.50 11.24L24.50 10.63C24.50 8.37 23.17 6.96 21.01 6.96C18.84 6.96 17.50 8.40 17.50 10.77C17.50 13.08 18.77 14.52 21.20 14.52ZM21.03 8.44C21.92 8.44 22.47 9.03 22.47 9.97L22.47 10.08L19.56 10.08L19.56 9.97C19.56 9.04 20.13 8.44 21.03 8.44ZM28.18 14.35L28.18 9.60C28.18 8.90 28.81 8.55 29.46 8.55C30.27 8.55 30.67 9.04 30.67 9.95L30.67 14.35L32.75 14.35L32.75 9.67C32.75 7.92 31.78 6.96 30.39 6.96C29.23 6.96 28.59 7.63 28.27 8.44L28.18 8.44L28.18 7.13L26.11 7.13L26.11 14.35ZM41.03 14.35L41.03 12.74L38.22 12.74L38.22 8.74L41.03 8.74L41.03 7.13L38.22 7.13L38.22 4.58L36.32 4.58L36.32 6.27C36.32 6.92 36.08 7.13 35.46 7.13L34.19 7.13L34.19 8.74L36.15 8.74L36.15 12.26C36.15 13.48 36.86 14.35 38.36 14.35ZM46.65 6.20C47.57 6.20 47.89 5.77 47.89 5.22L47.89 4.82C47.89 4.26 47.57 3.84 46.65 3.84C45.72 3.84 45.40 4.26 45.40 4.82L45.40 5.22C45.40 5.77 45.72 6.20 46.65 6.20ZM43.32 14.35L49.81 14.35L49.81 12.74L47.68 12.74L47.68 7.13L43.32 7.13L43.32 8.74L45.61 8.74L45.61 12.74L43.32 12.74ZM51.39 14.35L57.86 14.35L57.86 12.74L55.59 12.74L55.59 8.74L58.18 8.74L58.18 7.13L55.59 7.13L55.59 5.60L58.18 5.60L58.18 3.99L55.73 3.99C54.22 3.99 53.52 4.86 53.52 6.08L53.52 7.13L51.25 7.13L51.25 8.74L53.52 8.74L53.52 12.74L51.39 12.74ZM63.74 10.16L63.11 12.26L63 12.26L62.34 10.16L61.29 7.13L59.07 7.13L61.98 14.31L61.53 15.54L59.79 15.54L59.79 17.15L61.22 17.15C62.45 17.15 63.11 16.56 63.53 15.51L66.93 7.13L64.82 7.13Z"></path></g><defs data-v-423bf9ae=""><linearGradient data-v-423bf9ae="" gradientTransform="rotate(25)" id="956dfcb6-4344-460a-a693-34d7fe69d05c" x1="0%" y1="0%" x2="100%" y2="0%"><stop data-v-423bf9ae="" offset="0%" style="stop-color: rgb(233, 13, 218); stop-opacity: 1;"></stop><stop data-v-423bf9ae="" offset="100%" style="stop-color: rgb(21, 207, 241); stop-opacity: 1;"></stop></linearGradient></defs><g data-v-423bf9ae="" id="13187f87-e495-473a-8717-447fe2618839" transform="matrix(2.8125,0,0,2.8125,0,0)" stroke="none" fill="url(#956dfcb6-4344-460a-a693-34d7fe69d05c)"><path d="M16 32c8.837 0 16-7.163 16-16S24.837 0 16 0 0 7.163 0 16s7.163 16 16 16zM14.817 6.421h2v8.886h8.887v2H14.817V6.421zm-5.959.437h2v14.283h14.283v2H8.858V6.858z"></path></g><!----></svg>